<svg width="36" height="36" viewBox="0 0 36 36" fill="none" xmlns="http://www.w3.org/2000/svg">
<circle cx="18" cy="18" r="18" fill="white"/>
<g clip-path="url(#clip0_544_33)">
<path d="M12 15.5041H14.8279L19.082 12.0369V23.9631L14.8279 20.4959H12V15.5041ZM20.6803 14.9385C21.5164 15.7746 21.9426 16.791 21.959 17.9877C21.959 19.1352 21.5328 20.1188 20.6803 20.9385L19.8197 20.0533C20.4098 19.4631 20.7049 18.7664 20.7049 17.9631C20.7049 17.1434 20.4098 16.4303 19.8197 15.8238L20.6803 14.9385ZM22.1557 13.4877C23.3852 14.7172 24 16.2008 24 17.9385C24 19.6762 23.3852 21.168 22.1557 22.4139L21.2459 21.5041C22.2295 20.5369 22.7213 19.3525 22.7213 17.9508C22.7213 16.5492 22.2295 15.3566 21.2459 14.373L22.1557 13.4877Z" fill="black"/>
</g>
<defs>
<clipPath id="clip0_544_33">
<rect width="12" height="12" fill="white" transform="translate(12 12)"/>
</clipPath>
</defs>
</svg>
